<?xml version="1.0" encoding="UTF-8"?>
<svg id="Layer_3" data-name="Layer 3" xmlns="http://www.w3.org/2000/svg" viewBox="0 0 220.23 164.02">
  <defs>
    <style>
      .cls-1 {
        fill: #1fb9b7;
      }
    </style>
  </defs>
  <g id="Layer_1" data-name="Layer 1">
    <g>
      <rect class="cls-1" y="130.36" width="37.16" height="33.66"/>
      <path d="M217.62,43.77c-1.74-9.11-4.91-16.89-9.52-23.34-4.61-6.45-10.95-11.47-19.04-15.05-8.09-3.58-18.38-5.37-30.87-5.37-4.91,0-9.78.51-14.59,1.54-4.82,1.03-9.37,2.3-13.67,3.84-4.3,1.54-8.19,3.23-11.67,5.07-3.48,1.84-6.35,3.58-8.6,5.22-4.71-4.71-10.6-8.5-17.66-11.37-7.06-2.86-16.12-4.3-27.18-4.3-12.9,0-25.14.92-36.7,2.76C16.53,4.61,7.16,6.56,0,8.6v109.77h37.16V34.4c2.46-.41,6.15-.92,11.06-1.54,4.91-.61,9.42-.92,13.52-.92,11.46,0,19.3,3.74,23.5,11.21,4.19,7.48,6.29,19.61,6.29,36.4v84.47h37.17v-88.77c0-6.55-.31-12.69-.92-18.43-.61-5.73-1.74-11.16-3.38-16.28,2.66-1.84,6.66-3.73,11.98-5.68,5.32-1.94,10.95-2.92,16.89-2.92,11.67,0,19.55,3.74,23.65,11.21,4.09,7.48,6.14,19.61,6.14,36.4v84.47h37.17v-90.3c0-10.85-.87-20.83-2.61-29.95Z"/>
    </g>
  </g>
</svg>