<?xml version="1.0" encoding="UTF-8"?>
<svg id="Layer_2" data-name="Layer 2" xmlns="http://www.w3.org/2000/svg" viewBox="0 0 328.02 87.33">
  <defs>
    <style>
      .cls-1 {
        fill: #fff;
      }

      .cls-2 {
        fill: #1fb9b7;
      }
    </style>
  </defs>
  <g id="Layer_1" data-name="Layer 1">
    <g>
      <path class="cls-1" d="M121.14,44.06c0-7.32,1.09-13.73,3.26-19.25,2.17-5.51,5.06-10.1,8.67-13.76,3.6-3.66,7.74-6.42,12.41-8.27,4.67-1.85,9.44-2.78,14.31-2.78,11.45,0,20.39,3.55,26.8,10.66,6.42,7.11,9.62,17.71,9.62,31.81,0,1.06-.03,2.25-.08,3.58-.06,1.33-.13,2.52-.24,3.58h-54.88c.53,6.68,2.89,11.85,7.08,15.51,4.19,3.66,10.26,5.49,18.21,5.49,4.67,0,8.93-.42,12.8-1.27,3.87-.85,6.92-1.75,9.15-2.7l2.55,15.75c-1.06.53-2.52,1.09-4.38,1.67-1.86.58-3.98,1.11-6.36,1.59s-4.96.87-7.71,1.19c-2.76.32-5.57.48-8.43.48-7.32,0-13.68-1.09-19.09-3.26-5.41-2.17-9.86-5.19-13.36-9.07-3.5-3.87-6.1-8.43-7.8-13.68-1.7-5.25-2.55-11-2.55-17.26ZM176.97,35.47c0-2.65-.37-5.17-1.11-7.55-.74-2.39-1.83-4.45-3.26-6.2-1.43-1.75-3.18-3.13-5.25-4.14-2.07-1.01-4.53-1.51-7.4-1.51s-5.57.56-7.79,1.67c-2.23,1.11-4.11,2.57-5.65,4.37-1.54,1.8-2.73,3.87-3.58,6.2-.85,2.33-1.43,4.72-1.75,7.16h35.79Z"/>
      <path class="cls-1" d="M252.14,19.4c-1.59-.53-3.79-1.09-6.6-1.67-2.81-.58-6.07-.87-9.78-.87-2.12,0-4.37.21-6.76.64-2.39.43-4.06.8-5.01,1.11v66.65h-19.25V6.04c3.71-1.38,8.35-2.68,13.92-3.9,5.57-1.22,11.74-1.83,18.53-1.83,1.27,0,2.76.08,4.45.24,1.69.16,3.39.37,5.09.64,1.69.27,3.34.58,4.93.95,1.59.37,2.86.72,3.82,1.03l-3.34,16.22Z"/>
      <path class="cls-1" d="M327.06,15.59c-2.12,2.23-4.91,5.36-8.35,9.38-3.45,4.03-7.13,8.51-11.06,13.44-3.93,4.93-7.87,10.08-11.85,15.43-3.98,5.36-7.55,10.47-10.74,15.35h42.95v16.07h-66.17v-11.93c2.33-4.24,5.25-8.85,8.75-13.84,3.5-4.98,7.1-9.99,10.82-15.03,3.71-5.04,7.4-9.83,11.05-14.4,3.66-4.56,6.92-8.53,9.78-11.93h-38.33V2.07h63.15v13.52Z"/>
      <g>
        <rect class="cls-2" y="67.82" width="19.25" height="17.43"/>
        <path class="cls-1" d="M112.7,22.98c-.9-4.72-2.55-8.75-4.93-12.09-2.39-3.34-5.67-5.94-9.86-7.79-4.19-1.85-9.52-2.78-15.99-2.78-2.55,0-5.07.27-7.55.8-2.49.53-4.85,1.19-7.08,1.99s-4.24,1.67-6.05,2.62c-1.8.95-3.29,1.86-4.45,2.7-2.44-2.44-5.49-4.4-9.15-5.89-3.66-1.48-8.35-2.23-14.08-2.23-6.68,0-13.02.48-19.01,1.43C8.56,2.7,3.71,3.71,0,4.77v56.84h19.25V18.13c1.27-.21,3.18-.48,5.73-.8,2.55-.32,4.88-.48,7-.48,5.94,0,9.99,1.94,12.17,5.8,2.17,3.87,3.26,10.16,3.26,18.85v43.74h19.25v-45.97c0-3.39-.16-6.57-.48-9.54-.32-2.97-.9-5.78-1.75-8.43,1.38-.95,3.45-1.93,6.2-2.94,2.76-1.01,5.67-1.51,8.75-1.51,6.05,0,10.13,1.94,12.25,5.8,2.12,3.87,3.18,10.16,3.18,18.85v43.74h19.25v-46.76c0-5.62-.45-10.79-1.35-15.51Z"/>
      </g>
    </g>
  </g>
</svg>